<svg preserveAspectRatio="xMidYMid meet" viewBox="0 151 501 192" xmlns="http://www.w3.org/2000/svg" version="1.0" style="max-height: 500px" width="501" height="192">
<g stroke="none" fill="#ffffff" transform="translate(0.000000,500.000000) scale(0.050000,-0.050000)">
<path d="M1585 6467 c-173 -85 -225 -225 -225 -608 0 -327 9 -319 -361 -319&#10;-493 0 -592 -106 -575 -615 13 -414 101 -491 575 -499 370 -7 348 15 363 -362&#10;20 -496 94 -564 612 -564 462 1 570 76 583 403 8 205 9 206 108 76 88 -115&#10;153 -130 207 -48 43 65 34 84 -157 339 -261 347 -254 347 -510 4 -191 -257&#10;-211 -305 -148 -361 63 -57 114 -40 201 70 l82 102 0 -139 c0 -215 -19 -226&#10;-373 -226 -378 0 -375 -3 -382 367 -10 487 -79 556 -565 567 -374 9 -367 3&#10;-377 304 -11 356 -8 358 430 367 436 8 507 82 507 529 0 421 4 424 392 425&#10;375 1 361 16 372 -389 14 -486 93 -570 534 -570 317 0 354 -35 338 -327 l-6&#10;-118 -67 94 c-103 144 -216 167 -253 52 -29 -93 343 -581 443 -581 56 0 427&#10;479 427 550 0 137 -149 136 -246 -2 l-64 -92 -11 178 c-23 357 -125 453 -486&#10;461 -395 9 -378 -9 -393 427 -11 356 -40 423 -208 500 -113 51 -666 55 -767 5z"/>
<path d="M3980 4960 l0 -620 120 0 120 0 0 620 0 620 -120 0 -120 0 0 -620z"/>
<path d="M5300 5480 l0 -100 180 0 180 0 0 -520 0 -520 130 0 130 0 0 520 0&#10;520 180 0 180 0 0 100 0 100 -490 0 -490 0 0 -100z"/>
<path d="M8760 4960 l0 -620 120 0 120 0 0 146 c0 135 5 151 57 201 l56 54&#10;109 -200 108 -200 127 -1 c94 0 125 7 117 25 -6 14 -78 141 -161 284 l-150&#10;258 148 162 147 161 -138 6 -139 6 -75 -86 c-42 -46 -105 -117 -140 -155 l-65&#10;-71 0 325 -1 325 -120 0 -120 0 0 -620z"/>
<path d="M4780 5228 c-38 -17 -90 -49 -115 -73 l-45 -42 0 64 0 63 -110 0&#10;-110 0 0 -450 0 -450 120 0 120 0 0 307 c0 348 18 400 149 424 155 29 191 -55&#10;191 -456 l0 -275 123 0 122 0 -9 357 c-8 308 -15 367 -48 425 -72 125 -239&#10;171 -388 106z"/>
<path d="M6708 5241 c-23 -9 -61 -43 -84 -74 l-43 -57 0 65 -1 65 -110 0 -110&#10;0 0 -450 0 -450 118 0 118 0 8 285 c12 377 42 437 205 407 71 -14 165 142 116&#10;191 -28 28 -167 40 -217 18z"/>
<path d="M7160 5237 c-84 -24 -171 -102 -197 -178 -33 -93 154 -119 239 -34&#10;96 96 278 52 278 -67 0 -28 -40 -44 -191 -79 -276 -64 -368 -139 -369 -299 0&#10;-243 342 -349 542 -168 30 27 34 25 46 -21 12 -47 21 -51 129 -51 l117 0 -27&#10;104 c-16 64 -27 214 -27 382 l0 277 -57 57 c-92 92 -306 126 -483 77z m320&#10;-536 c0 -174 -228 -296 -301 -160 -51 96 -11 151 137 191 147 40 164 36 164&#10;-31z"/>
<path d="M8090 5230 c-268 -94 -360 -523 -165 -760 202 -244 654 -174 725 113&#10;16 63 9 68 -116 86 -93 13 -96 12 -117 -48 -46 -134 -243 -141 -311 -11 -64&#10;121 -44 351 35 415 86 69 279 23 279 -68 0 -21 184 -9 224 15 21 13 -49 148&#10;-101 195 -96 87 -302 116 -453 63z"/>
</g>
</svg>