<svg preserveAspectRatio="xMidYMid meet" viewBox="90 90 364 324" xmlns="http://www.w3.org/2000/svg" version="1.0" style="max-height: 500px" width="364" height="324">
<g stroke="none" fill="#000000" transform="translate(0.000000,500.000000) scale(0.100000,-0.100000)">
<path d="M2270 3887 c-108 -24 -189 -91 -239 -197 -26 -54 -26 -60 -31 -325&#10;-7 -383 18 -358 -370 -365 l-275 -5 -57 -28 c-72 -35 -134 -97 -167 -167 -26&#10;-55 -26 -56 -26 -315 0 -259 0 -260 26 -315 31 -66 96 -133 160 -166 70 -35&#10;156 -45 400 -44 318 2 302 19 309 -340 5 -250 6 -256 31 -310 39 -82 90 -135&#10;167 -172 l67 -33 266 -3 c280 -4 351 3 425 39 62 29 123 94 156 166 27 56 30&#10;76 35 197 l6 134 71 -91 c73 -93 104 -115 151 -103 43 11 76 48 82 92 5 39 2&#10;45 -171 276 -187 250 -204 266 -270 254 -32 -6 -52 -29 -201 -227 -91 -121&#10;-173 -235 -182 -254 -46 -97 83 -189 161 -116 12 11 46 54 76 95 30 42 59 76&#10;64 76 4 0 7 -51 5 -112 -5 -129 -20 -168 -79 -199 -31 -17 -60 -19 -285 -19&#10;-280 0 -299 4 -342 69 -22 33 -23 41 -23 266 0 256 -6 296 -61 378 -17 25 -53&#10;63 -80 83 -84 61 -113 66 -409 71 -290 5 -294 6 -330 66 -18 29 -20 51 -20&#10;235 0 169 3 210 16 239 32 66 38 67 339 73 251 5 274 7 328 29 73 29 149 102&#10;185 178 27 58 27 60 32 330 7 381 -11 363 363 363 276 0 297 -4 340 -64 21&#10;-30 22 -42 27 -306 5 -262 6 -278 29 -327 26 -58 97 -130 157 -161 63 -32 145&#10;-42 348 -42 174 0 194 -2 224 -20 52 -32 62 -69 62 -231 l0 -142 -64 84 c-82&#10;109 -97 121 -145 123 -32 0 -47 -6 -71 -29 -28 -27 -31 -35 -28 -75 4 -41 23&#10;-70 174 -272 93 -125 179 -231 192 -237 36 -17 77 -13 107 11 15 12 101 120&#10;191 240 152 203 164 222 164 261 0 60 -43 102 -101 101 -48 -2 -63 -14 -144&#10;-122 l-63 -82 -4 172 c-3 161 -5 177 -29 228 -33 70 -99 136 -169 169 -53 25&#10;-63 26 -295 31 -228 5 -242 6 -271 27 -17 12 -36 35 -42 50 -6 16 -13 136 -15&#10;288 -3 209 -7 269 -20 303 -35 93 -115 173 -209 209 -57 22 -561 29 -648 10z"/>
</g>
</svg>